# xmcd
#
# Track frame offsets: 
#        150
#        16745
#        29365
#        49194
#        58062
#        85727
#        104765
#        127324
#        152857
#        168093
#        172749
#        187788
#        204970
#        221423
#        242311
#        256773
#        270671
#        289365
#        304518
#
# Disc length: 4288 seconds
#
# Revision: 0
# Processed by: cddbd v1.5.2PL0 Copyright (c) Steve Scherf et al.
# Submitted via: ExactAudioCopy v0.99pb5
#
DISCID=fa10be13
DTITLE=Jethro Tull  - This Was - Disc 1
DYEAR=1900
DGENRE=
TTITLE0=My Sunday Feeling
TTITLE1=Some Day The Sun Won't Shine
TTITLE2=Beggar's Farm
TTITLE3=Move On Alone
TTITLE4=Serenade To A Cuckoo
TTITLE5=Dharma For One
TTITLE6=It's Breaking Me Up
TTITLE7=Cat's Squirrel
TTITLE8=A Song For Jeffrey
TTITLE9=Round
TTITLE10=So Much Trouble
TTITLE11=My Sunday Feeling
TTITLE12=Serenade To A Cuckoo
TTITLE13=Cat's Squirrel
TTITLE14=A Song For Jeffrey
TTITLE15=Love Story
TTITLE16=Stormy Monday
TTITLE17=Beggar's Farm
TTITLE18=Dharma For One
EXTD=
EXTT0=
EXTT1=
EXTT2=
EXTT3=
EXTT4=
EXTT5=
EXTT6=
EXTT7=
EXTT8=
EXTT9=
EXTT10=
EXTT11=
EXTT12=
EXTT13=
EXTT14=
EXTT15=
EXTT16=
EXTT17=
EXTT18=
PLAYORDER=
